<?xml version="1.0" encoding="utf-8"?>
<!-- Generator: Adobe Illustrator 24.2.3, SVG Export Plug-In . SVG Version: 6.00 Build 0)  -->
<svg version="1.1" id="Capa_1" xmlns="http://www.w3.org/2000/svg" xmlns:xlink="http://www.w3.org/1999/xlink" x="0px" y="0px"
	 viewBox="0 0 175 25" style="enable-background:new 0 0 175 25;" xml:space="preserve">
<style type="text/css">
	.st0{fill:#FFFFFF;}
</style>
<g>
	<g>
		<path class="st0" d="M43.2,3.9C43.1,3.9,43,4,43,4h-6.5c-0.1,0-0.1,0-0.1,0.1v4c0,0.1,0,0.1,0.1,0.1h4.4c0.1,0,0.2,0,0.2,0.1
			c0,0.1,0.1,0.1,0.1,0.2v1c0,0.1,0,0.1-0.1,0.2c-0.1,0.1-0.1,0.1-0.2,0.1h-4.4c-0.1,0-0.1,0-0.1,0.1v5.4c0,0.1,0,0.1-0.1,0.2
			c-0.1,0.1-0.1,0.1-0.2,0.1h-1.2c-0.1,0-0.1,0-0.2-0.1c-0.1-0.1-0.1-0.1-0.1-0.2V2.7c0-0.1,0-0.2,0.1-0.2c0.1-0.1,0.1-0.1,0.2-0.1
			H43c0.1,0,0.2,0,0.2,0.1c0.1,0.1,0.1,0.1,0.1,0.2v1C43.3,3.8,43.2,3.8,43.2,3.9z M50.2,6.1c0.1,0.1,0.2,0.2,0.1,0.4l-0.3,1.2
			c0,0.1-0.1,0.2-0.2,0.2c-0.1,0-0.1,0-0.1,0c-0.2-0.1-0.4-0.1-0.6-0.1c-0.1,0-0.2,0-0.3,0c-0.6,0-1.1,0.2-1.4,0.6
			c-0.4,0.4-0.6,0.9-0.6,1.5v5.3c0,0.1,0,0.1-0.1,0.2c-0.1,0.1-0.1,0.1-0.2,0.1h-1.2c-0.1,0-0.1,0-0.2-0.1c-0.1,0-0.1-0.1-0.1-0.2
			V6.2c0-0.1,0-0.2,0.1-0.2C45.2,6,45.2,6,45.3,6h1.2c0.1,0,0.2,0,0.2,0.1c0,0,0.1,0.1,0.1,0.2v0.9c0,0.1,0,0.1,0,0.1c0,0,0,0,0.1,0
			c0.6-0.8,1.3-1.3,2.3-1.3C49.5,5.9,49.9,5.9,50.2,6.1z M53.7,14.9c-0.7-0.5-1.1-1.1-1.4-1.9c-0.2-0.7-0.3-1.4-0.3-2.3
			c0-0.9,0.1-1.6,0.3-2.2C52.5,7.6,53,7,53.7,6.5c0.7-0.5,1.5-0.7,2.4-0.7c0.9,0,1.7,0.2,2.3,0.7c0.7,0.5,1.1,1.1,1.4,1.9
			c0.2,0.6,0.3,1.4,0.3,2.2c0,0.9-0.1,1.6-0.3,2.3c-0.3,0.8-0.7,1.5-1.4,1.9c-0.7,0.5-1.5,0.7-2.4,0.7
			C55.2,15.6,54.4,15.3,53.7,14.9z M57.4,13.6c0.4-0.3,0.6-0.7,0.8-1.2c0.1-0.5,0.2-1.1,0.2-1.7s-0.1-1.3-0.2-1.7
			c-0.2-0.5-0.4-0.9-0.8-1.2c-0.4-0.3-0.8-0.4-1.4-0.4c-0.5,0-0.9,0.1-1.3,0.4S54.1,8.4,54,8.9c-0.1,0.4-0.2,1-0.2,1.7
			c0,0.7,0.1,1.3,0.2,1.7c0.1,0.5,0.4,0.9,0.8,1.2c0.4,0.3,0.8,0.4,1.4,0.4C56.6,14,57,13.9,57.4,13.6z M69.6,6.7
			c0.6,0.6,0.9,1.4,0.9,2.4v6c0,0.1,0,0.1-0.1,0.2c-0.1,0.1-0.1,0.1-0.2,0.1H69c-0.1,0-0.1,0-0.2-0.1c-0.1-0.1-0.1-0.1-0.1-0.2V9.4
			c0-0.6-0.2-1.1-0.5-1.5c-0.4-0.4-0.8-0.6-1.4-0.6c-0.5,0-1,0.2-1.3,0.5c-0.4,0.3-0.6,0.7-0.6,1.3v6c0,0.1,0,0.1-0.1,0.2
			c-0.1,0.1-0.1,0.1-0.2,0.1h-1.2c-0.1,0-0.1,0-0.2-0.1C63,15.3,63,15.2,63,15.1V6.2c0-0.1,0-0.2,0.1-0.2C63.1,6,63.2,6,63.3,6h1.2
			c0.1,0,0.2,0,0.2,0.1c0.1,0.1,0.1,0.1,0.1,0.2v0.5c0,0,0,0.1,0,0.1c0,0,0,0,0.1,0c0.5-0.7,1.3-1,2.3-1C68.2,5.8,69,6.1,69.6,6.7z
			 M78.1,7.4C78,7.4,78,7.4,77.9,7.4H76c-0.1,0-0.1,0-0.1,0.1v4.8c0,0.5,0.1,0.9,0.3,1.1c0.2,0.2,0.6,0.3,1.1,0.3h0.4
			c0.1,0,0.2,0,0.2,0.1c0.1,0.1,0.1,0.1,0.1,0.2v1c0,0.2-0.1,0.3-0.3,0.3l-0.8,0c-1,0-1.7-0.2-2.1-0.5c-0.5-0.3-0.7-1-0.7-1.9V7.5
			c0-0.1,0-0.1-0.1-0.1h-1c-0.1,0-0.1,0-0.2-0.1c-0.1-0.1-0.1-0.1-0.1-0.2V6.2c0-0.1,0-0.2,0.1-0.2C72.9,6,73,6,73.1,6h1
			c0.1,0,0.1,0,0.1-0.1V3.8c0-0.1,0-0.2,0.1-0.2c0.1-0.1,0.1-0.1,0.2-0.1h1.2c0.1,0,0.2,0,0.2,0.1c0,0,0.1,0.1,0.1,0.2v2.1
			c0,0.1,0,0.1,0.1,0.1h1.9C78,6,78,6,78.1,6c0.1,0,0.1,0.1,0.1,0.2v0.9C78.2,7.2,78.1,7.3,78.1,7.4z M86.7,12.9
			c0.1-0.1,0.1-0.2,0.2-0.2c0.1,0,0.1,0,0.2,0.1l0.8,0.5c0.1,0.1,0.1,0.1,0.1,0.2l0,0.1c-0.3,0.6-0.8,1.1-1.4,1.4
			c-0.6,0.3-1.3,0.5-2.1,0.5c-0.9,0-1.6-0.2-2.2-0.6c-0.6-0.4-1.1-0.9-1.4-1.7c-0.3-0.8-0.5-1.6-0.5-2.7c0-0.9,0.1-1.6,0.2-2.1
			c0.2-0.9,0.7-1.5,1.3-2c0.7-0.5,1.5-0.7,2.4-0.7c1.2,0,2.1,0.3,2.7,0.9c0.6,0.6,1,1.5,1.2,2.7c0.1,0.5,0.1,1,0.1,1.7
			c0,0.2-0.1,0.3-0.3,0.3h-5.9c-0.1,0-0.1,0-0.1,0.1c0,0.5,0.1,0.8,0.1,1c0.1,0.5,0.4,0.9,0.8,1.2c0.4,0.3,0.9,0.4,1.5,0.4
			C85.6,14,86.3,13.6,86.7,12.9L86.7,12.9z M83,7.7c-0.3,0.3-0.6,0.6-0.7,1.1c-0.1,0.3-0.2,0.7-0.2,1c0,0.1,0,0.1,0.1,0.1h4.2
			c0.1,0,0.1,0,0.1-0.1c0-0.4-0.1-0.7-0.1-0.9c-0.1-0.5-0.4-0.9-0.7-1.2c-0.4-0.3-0.8-0.4-1.4-0.4S83.3,7.5,83,7.7z M97.7,6.7
			c0.6,0.6,0.9,1.4,0.9,2.4v6c0,0.1,0,0.1-0.1,0.2c-0.1,0.1-0.1,0.1-0.2,0.1H97c-0.1,0-0.1,0-0.2-0.1c-0.1-0.1-0.1-0.1-0.1-0.2V9.4
			c0-0.6-0.2-1.1-0.5-1.5c-0.4-0.4-0.8-0.6-1.4-0.6c-0.5,0-1,0.2-1.3,0.5c-0.4,0.3-0.6,0.7-0.6,1.3v6c0,0.1,0,0.1-0.1,0.2
			c-0.1,0.1-0.1,0.1-0.2,0.1h-1.2c-0.1,0-0.1,0-0.2-0.1c-0.1-0.1-0.1-0.1-0.1-0.2V6.2c0-0.1,0-0.2,0.1-0.2C91.2,6,91.2,6,91.3,6h1.2
			c0.1,0,0.2,0,0.2,0.1c0.1,0,0.1,0.1,0.1,0.2v0.5c0,0,0,0.1,0,0.1c0,0,0,0,0.1,0c0.5-0.7,1.3-1,2.3-1C96.3,5.8,97.1,6.1,97.7,6.7z
			 M107.4,2.5c0.1-0.1,0.1-0.1,0.2-0.1h1.2c0.1,0,0.1,0,0.2,0.1c0.1,0,0.1,0.1,0.1,0.2v12.4c0,0.1,0,0.1-0.1,0.2
			c-0.1,0.1-0.1,0.1-0.2,0.1h-1.2c-0.1,0-0.1,0-0.2-0.1c-0.1,0-0.1-0.1-0.1-0.2v-0.5c0,0,0-0.1,0-0.1c0,0-0.1,0-0.1,0
			c-0.3,0.3-0.6,0.5-1,0.7c-0.4,0.2-0.8,0.2-1.2,0.2c-0.9,0-1.6-0.2-2.2-0.7c-0.6-0.4-1-1.1-1.3-1.9c-0.2-0.6-0.3-1.4-0.3-2.4
			c0-0.9,0.1-1.7,0.3-2.2c0.3-0.8,0.7-1.5,1.3-1.9c0.6-0.5,1.4-0.7,2.3-0.7c0.4,0,0.8,0.1,1.2,0.2c0.4,0.2,0.7,0.4,1,0.7
			c0,0,0,0,0.1,0c0,0,0,0,0-0.1v-4C107.3,2.6,107.3,2.5,107.4,2.5z M107.3,10.7c0-1-0.2-1.8-0.5-2.4c-0.4-0.6-0.9-0.9-1.6-0.9
			c-0.7,0-1.3,0.3-1.7,0.9c-0.4,0.6-0.6,1.4-0.6,2.4c0,1,0.2,1.7,0.5,2.3c0.4,0.7,1,1,1.8,1c0.7,0,1.2-0.3,1.6-1
			C107.1,12.5,107.3,11.7,107.3,10.7z M116.7,15.3c-0.1-0.1-0.1-0.1-0.1-0.2V2.7c0-0.1,0-0.2,0.1-0.2c0.1-0.1,0.1-0.1,0.2-0.1h1.2
			c0.1,0,0.3,0.1,0.3,0.2l3.1,5c0,0.1,0.1,0.1,0.1,0l3.1-5c0.1-0.1,0.2-0.2,0.3-0.2h1.2c0.1,0,0.1,0,0.2,0.1c0.1,0,0.1,0.1,0.1,0.2
			v12.4c0,0.1,0,0.1-0.1,0.2c-0.1,0.1-0.1,0.1-0.2,0.1h-1.2c-0.1,0-0.1,0-0.2-0.1c-0.1,0-0.1-0.1-0.1-0.2V5.7c0-0.1,0-0.1,0-0.1
			c0,0-0.1,0-0.1,0l-2.5,4.1c-0.1,0.1-0.2,0.2-0.3,0.2h-0.6c-0.1,0-0.3-0.1-0.3-0.2l-2.5-4.1c0,0-0.1-0.1-0.1,0c0,0,0,0,0,0.1v9.4
			c0,0.1,0,0.1-0.1,0.2c-0.1,0.1-0.1,0.1-0.2,0.1h-1.2C116.8,15.4,116.7,15.4,116.7,15.3z M136.1,12.9c0.1-0.1,0.1-0.2,0.2-0.2
			c0.1,0,0.1,0,0.2,0.1l0.8,0.5c0.1,0.1,0.1,0.1,0.1,0.2l0,0.1c-0.3,0.6-0.8,1.1-1.4,1.4c-0.6,0.3-1.3,0.5-2.1,0.5
			c-0.9,0-1.6-0.2-2.2-0.6c-0.6-0.4-1.1-0.9-1.4-1.7c-0.3-0.8-0.5-1.6-0.5-2.7c0-0.9,0.1-1.6,0.2-2.1c0.2-0.9,0.7-1.5,1.3-2
			c0.7-0.5,1.5-0.7,2.4-0.7c1.2,0,2.1,0.3,2.7,0.9c0.6,0.6,1,1.5,1.2,2.7c0.1,0.6,0.1,1.1,0.1,1.7c0,0.2-0.1,0.3-0.3,0.3h-5.9
			c-0.1,0-0.1,0-0.1,0.1c0,0.5,0.1,0.8,0.1,1c0.1,0.5,0.4,0.9,0.8,1.2c0.4,0.3,0.9,0.4,1.5,0.4C134.9,14,135.6,13.6,136.1,12.9
			L136.1,12.9z M132.3,7.7c-0.3,0.3-0.6,0.6-0.7,1.1c-0.1,0.3-0.2,0.7-0.2,1c0,0.1,0,0.1,0.1,0.1h4.2c0.1,0,0.1,0,0.1-0.1
			c0-0.4-0.1-0.7-0.1-0.9c-0.1-0.5-0.4-0.9-0.7-1.2c-0.4-0.3-0.8-0.4-1.4-0.4S132.7,7.5,132.3,7.7L132.3,7.7z M147,6.7
			c0.6,0.6,0.9,1.4,0.9,2.4v6c0,0.1,0,0.1-0.1,0.2c-0.1,0.1-0.1,0.1-0.2,0.1h-1.2c-0.1,0-0.1,0-0.2-0.1c-0.1-0.1-0.1-0.1-0.1-0.2
			V9.4c0-0.6-0.2-1.1-0.5-1.5c-0.4-0.4-0.8-0.6-1.4-0.6c-0.5,0-1,0.2-1.3,0.5s-0.6,0.7-0.6,1.3v6c0,0.1,0,0.1-0.1,0.2
			c-0.1,0.1-0.1,0.1-0.2,0.1h-1.2c-0.1,0-0.1,0-0.2-0.1c-0.1-0.1-0.1-0.1-0.1-0.2V6.2c0-0.1,0-0.2,0.1-0.2c0.1-0.1,0.1-0.1,0.2-0.1
			h1.2c0.1,0,0.2,0,0.2,0.1c0.1,0,0.1,0.1,0.1,0.2v0.5c0,0,0,0.1,0,0.1c0,0,0,0,0.1,0c0.5-0.7,1.3-1,2.3-1
			C145.6,5.8,146.4,6.1,147,6.7z M155.5,7.4c-0.1,0.1-0.1,0.1-0.2,0.1h-1.9c-0.1,0-0.1,0-0.1,0.1v4.8c0,0.5,0.1,0.9,0.3,1.1
			c0.2,0.2,0.6,0.3,1.1,0.3h0.4c0.1,0,0.1,0,0.2,0.1c0.1,0.1,0.1,0.1,0.1,0.2v1c0,0.2-0.1,0.3-0.3,0.3l-0.8,0c-1,0-1.7-0.2-2.1-0.5
			c-0.5-0.3-0.7-1-0.7-1.9V7.5c0-0.1,0-0.1-0.1-0.1h-1c-0.1,0-0.1,0-0.2-0.1c-0.1-0.1-0.1-0.1-0.1-0.2V6.2c0-0.1,0-0.2,0.1-0.2
			c0.1-0.1,0.1-0.1,0.2-0.1h1c0.1,0,0.1,0,0.1-0.1V3.8c0-0.1,0-0.2,0.1-0.2c0.1-0.1,0.1-0.1,0.2-0.1h1.1c0.1,0,0.2,0,0.2,0.1
			c0.1,0,0.1,0.1,0.1,0.2v2.1c0,0.1,0,0.1,0.1,0.1h1.9c0.1,0,0.2,0,0.2,0.1c0.1,0.1,0.1,0.1,0.1,0.2v0.9
			C155.6,7.2,155.5,7.3,155.5,7.4L155.5,7.4z M159.5,14.9c-0.7-0.5-1.1-1.1-1.4-1.9c-0.2-0.7-0.3-1.4-0.3-2.3c0-0.9,0.1-1.6,0.3-2.2
			c0.3-0.8,0.7-1.5,1.4-1.9c0.7-0.5,1.5-0.7,2.4-0.7c0.9,0,1.7,0.2,2.3,0.7c0.7,0.5,1.1,1.1,1.4,1.9c0.2,0.6,0.3,1.4,0.3,2.2
			c0,0.9-0.1,1.6-0.3,2.3c-0.3,0.8-0.7,1.5-1.4,1.9c-0.7,0.5-1.5,0.7-2.4,0.7C160.9,15.6,160.1,15.3,159.5,14.9L159.5,14.9z
			 M163.2,13.6c0.4-0.3,0.6-0.7,0.8-1.2c0.1-0.5,0.2-1.1,0.2-1.7s-0.1-1.3-0.2-1.7c-0.2-0.5-0.4-0.9-0.8-1.2s-0.8-0.4-1.4-0.4
			c-0.5,0-0.9,0.1-1.3,0.4c-0.4,0.3-0.6,0.7-0.8,1.2c-0.1,0.4-0.2,1-0.2,1.7c0,0.7,0.1,1.3,0.2,1.7c0.1,0.5,0.4,0.9,0.8,1.2
			s0.8,0.4,1.4,0.4C162.3,14,162.8,13.9,163.2,13.6z M173.9,6.1c0.1,0.1,0.2,0.2,0.1,0.4l-0.3,1.2c0,0.1-0.1,0.2-0.2,0.2
			c-0.1,0-0.1,0-0.1,0c-0.2-0.1-0.4-0.1-0.6-0.1c-0.1,0-0.2,0-0.3,0c-0.6,0-1.1,0.2-1.4,0.6c-0.4,0.4-0.6,0.9-0.6,1.5v5.3
			c0,0.1,0,0.1-0.1,0.2c-0.1,0.1-0.1,0.1-0.2,0.1H169c-0.1,0-0.1,0-0.2-0.1c-0.1-0.1-0.1-0.1-0.1-0.2V6.2c0-0.1,0-0.2,0.1-0.2
			C168.9,6,169,6,169,6h1.2c0.1,0,0.2,0,0.2,0.1c0.1,0,0.1,0.1,0.1,0.2v0.9c0,0.1,0,0.1,0,0.1s0,0,0.1,0c0.6-0.8,1.3-1.3,2.3-1.3
			C173.3,5.9,173.6,5.9,173.9,6.1L173.9,6.1z"/>
	</g>
	<path class="st0" d="M24.8,12.2c-0.1,0-0.2,0-0.3-0.1L18,9.2c-0.4-0.2-0.5-0.6-0.4-1c0.1-0.2,0.2-0.3,0.4-0.4L24.5,5
		c0.4-0.2,0.8,0,1,0.4c0.2,0.4,0,0.8-0.4,1l-4.9,2.2l4.9,2.2c0.4,0.2,0.5,0.6,0.4,1C25.3,12,25.1,12.2,24.8,12.2z"/>
	<path class="st0" d="M16,22.6c-7.1,0-13.3-4.8-15-11.6c-0.1-0.4,0.1-0.8,0.5-0.9s0.8,0.1,0.9,0.5C4,16.8,9.6,21.1,16,21.1
		c0.4,0,0.7,0.3,0.7,0.8S16.4,22.6,16,22.6L16,22.6z"/>
	<path class="st0" d="M13.4,16.4c-0.4,0-0.8-0.3-0.8-0.7V1.4c0-0.4,0.3-0.8,0.8-0.8s0.8,0.3,0.8,0.8v14.3
		C14.2,16.1,13.8,16.4,13.4,16.4z"/>
	<g>
		<path class="st0" d="M41.7,24.8c-0.2,0-0.4-0.1-0.5-0.2l-3.3-3.3l-3.3,3.3c-0.3,0.3-0.8,0.3-1.1,0s-0.3-0.8,0-1.1l0,0l3.8-3.8
			c0.3-0.3,0.8-0.3,1.1,0c0,0,0,0,0,0l3.8,3.8c0.3,0.3,0.3,0.8,0,1.1C42.1,24.7,41.9,24.8,41.7,24.8z"/>
		<path class="st0" d="M49.3,24.8c-0.2,0-0.4-0.1-0.5-0.2l-3.3-3.3l-3.3,3.3c-0.3,0.3-0.8,0.3-1.1,0s-0.3-0.8,0-1.1l0,0l3.8-3.8
			c0.3-0.3,0.8-0.3,1.1,0l3.8,3.8c0.3,0.3,0.3,0.8,0,1.1C49.7,24.7,49.5,24.8,49.3,24.8z"/>
		<path class="st0" d="M56.9,24.8c-0.2,0-0.4-0.1-0.5-0.2l-3.3-3.3l-3.3,3.3c-0.3,0.3-0.8,0.3-1.1,0s-0.3-0.8,0-1.1l0,0l3.8-3.8
			c0.3-0.3,0.8-0.3,1.1,0l3.8,3.8c0.3,0.3,0.3,0.8,0,1.1C57.3,24.7,57.1,24.8,56.9,24.8z"/>
		<path class="st0" d="M64.5,24.8c-0.2,0-0.4-0.1-0.5-0.2l-3.3-3.3l-3.3,3.3c-0.3,0.3-0.8,0.3-1.1,0s-0.3-0.8,0-1.1l0,0l3.8-3.8
			c0.3-0.3,0.8-0.3,1.1,0l3.8,3.8c0.3,0.3,0.3,0.8,0,1.1C64.9,24.7,64.7,24.8,64.5,24.8z"/>
		<path class="st0" d="M72.1,24.8c-0.2,0-0.4-0.1-0.5-0.2l-3.3-3.3l-3.3,3.3c-0.3,0.3-0.8,0.3-1.1,0c-0.3-0.3-0.3-0.8,0-1.1l3.8-3.8
			c0.3-0.3,0.8-0.3,1.1,0l3.8,3.8c0.3,0.3,0.3,0.8,0,1.1C72.5,24.7,72.3,24.8,72.1,24.8z"/>
		<g>
			<path class="st0" d="M79.7,24.8c-0.2,0-0.4-0.1-0.5-0.2l-3.3-3.3l-3.3,3.3c-0.3,0.3-0.8,0.3-1.1,0c-0.3-0.3-0.3-0.8,0-1.1
				l3.8-3.8c0.3-0.3,0.8-0.3,1.1,0l3.8,3.8c0.3,0.3,0.3,0.8,0,1.1C80.1,24.7,79.9,24.8,79.7,24.8z"/>
			<path class="st0" d="M87.3,24.8c-0.2,0-0.4-0.1-0.5-0.2l-3.3-3.3l-3.3,3.3c-0.3,0.3-0.8,0.3-1.1,0c-0.3-0.3-0.3-0.8,0-1.1
				l3.8-3.8c0.3-0.3,0.8-0.3,1.1,0l3.8,3.8c0.3,0.3,0.3,0.8,0,1.1C87.7,24.7,87.6,24.8,87.3,24.8z"/>
			<path class="st0" d="M95,24.8c-0.2,0-0.4-0.1-0.5-0.2l-3.3-3.3l-3.3,3.3c-0.3,0.3-0.8,0.3-1.1,0c-0.3-0.3-0.3-0.8,0-1.1l3.8-3.8
				c0.3-0.3,0.8-0.3,1.1,0l3.8,3.8c0.3,0.3,0.3,0.8,0,1.1C95.3,24.7,95.2,24.8,95,24.8z"/>
			<path class="st0" d="M102.6,24.8c-0.2,0-0.4-0.1-0.5-0.2l-3.3-3.3l-3.3,3.3c-0.3,0.3-0.8,0.3-1.1,0c-0.3-0.3-0.3-0.8,0-1.1
				l3.8-3.8c0.3-0.3,0.8-0.3,1.1,0c0,0,0,0,0,0l3.8,3.8c0.3,0.3,0.3,0.8,0,1.1C103,24.7,102.8,24.8,102.6,24.8z"/>
			<path class="st0" d="M110.2,24.8c-0.2,0-0.4-0.1-0.5-0.2l-3.3-3.3l-3.3,3.3c-0.3,0.3-0.8,0.3-1.1,0c-0.3-0.3-0.3-0.8,0-1.1
				l3.8-3.8c0.3-0.3,0.8-0.3,1.1,0l3.8,3.8c0.3,0.3,0.3,0.8,0,1.1C110.6,24.7,110.4,24.8,110.2,24.8z"/>
		</g>
	</g>
</g>
</svg>
